/* XPM */
static char *result[] = {
/* columns rows colors chars-per-pixel */
"32 32 108 2 ",
"   c gray49",
".  c #818181",
"X  c gray51",
"o  c #848484",
"O  c #888888",
"+  c #8B8B8B",
"@  c #8D8D8D",
"#  c #909090",
"$  c gray57",
"%  c #929292",
"&  c #939393",
"*  c #959595",
"=  c gray59",
"-  c #979797",
";  c #989898",
":  c #9A9A9A",
">  c #9B9B9B",
",  c gray61",
"<  c #9D9D9D",
"1  c gray62",
"2  c #9F9F9F",
"3  c gray64",
"4  c #A4A4A4",
"5  c #A5A5A5",
"6  c gray65",
"7  c #A7A7A7",
"8  c gray66",
"9  c #A9A9A9",
"0  c #AAAAAA",
"q  c gray67",
"w  c #ACACAC",
"e  c gray68",
"r  c #AEAEAE",
"t  c #AFAFAF",
"y  c gray69",
"u  c #B1B1B1",
"i  c #B2B2B2",
"p  c gray71",
"a  c #B6B6B6",
"s  c #B7B7B7",
"d  c gray72",
"f  c #B9B9B9",
"g  c gray73",
"h  c #BBBBBB",
"j  c #BCBCBC",
"k  c gray74",
"l  c gray",
"z  c gray75",
"x  c #C0C0C0",
"c  c #C1C1C1",
"v  c gray76",
"b  c gray77",
"n  c #C5C5C5",
"m  c gray78",
"M  c #C8C8C8",
"N  c gray79",
"B  c #CACACA",
"V  c #CBCBCB",
"C  c gray80",
"Z  c #CDCDCD",
"A  c #CECECE",
"S  c gray81",
"D  c #D0D0D0",
"F  c gray82",
"G  c #D2D2D2",
"H  c LightGray",
"J  c gray83",
"K  c #D5D5D5",
"L  c gray84",
"P  c #D7D7D7",
"I  c #D8D8D8",
"U  c gray85",
"Y  c #DADADA",
"T  c gray86",
"R  c gainsboro",
"E  c #DDDDDD",
"W  c gray87",
"Q  c #DFDFDF",
"!  c gray88",
"~  c #E1E1E1",
"^  c #E2E2E2",
"/  c gray89",
"(  c #E4E4E4",
")  c gray90",
"_  c #E6E6E6",
"`  c #E7E7E7",
"'  c gray91",
"]  c #E9E9E9",
"[  c #EAEAEA",
"{  c gray92",
"}  c #ECECEC",
"|  c gray93",
" . c #EEEEEE",
".. c gray94",
"X. c #F1F1F1",
"o. c gray95",
"O. c #F3F3F3",
"+. c gray96",
"@. c #F6F6F6",
"#. c gray97",
"$. c #F8F8F8",
"%. c #F9F9F9",
"&. c gray98",
"*. c #FBFBFB",
"=. c #FDFDFD",
"-. c #FEFEFE",
";. c white",
":. c None",
/* pixels */
":.:.:.:.:.:.:.:.:.:.:.:.:.:.:.:.:.:.:.:.:.:.:.:.:.:.:.:.:.:.:.:.",
":.:.:.:.:.:.:.:.:.:.:.:.:.:.:.:.:.:.:.:.:.:.:.:.:.:.:.:.:.:.:.:.",
":.:.:.:.:.:.:.:.:.:.:.:.:.:.:.y i :.:.:.:.:.:.:.:.:.:.:.:.:.:.:.",
":.:.:.:.:.:.:.:.:.:.:.:.:.@ Y ` ) R $ :.:.:.:.:.:.:.:.:.:.:.:.:.",
":.:.:.:.:.:.:.:.:.:.:.:.x ;.+.i u X.;.b :.:.:.:.:.:.:.:.:.:.:.:.",
":.:.:.:.:.:.:.:.:.:.w %.;.d :.n A :.u ;.=.u :.:.:.:.:.:.:.:.:.:.",
":.:.:.:.:.:.:.:.- ( ;.F :.:.:.L ! :.:.:.C ;.' , :.:.:.:.:.:.:.:.",
":.:.:.:.:.:.:.Z ;.] > :.:.:.:.Y / :.:.:.:.- ( ;.F :.:.:.:.:.:.:.",
":.:.:.:.:.d ;.-.y :.:.:.:.:.:.z m :.:.:.:.:.:.w &.;.l :.:.:.:.:.",
":.:.:.  o.#.q :.:.:.:.:.:.:.@ t u # :.:.:.:.:.:.:.7 O.#.o :.:.:.",
":.:.:.b @.) 9 :.:.:.:.:.:.7 z t t x e . :.:.:.:.:.4 ) +.V :.:.:.",
":.:.:.x I m ;.' > :.:.2 k / [ r w ` _ c 3 :.:.; ) ;.V J n :.:.:.",
":.:.:.f ] :.+ _ ;.M w b +.;.+.8 6 ..;.#.m r n ;.] $ :.~ v :.:.:.",
":.:.:.f +.:.:.:.r  .( G _ #.*.0 8 #.%.` H ~ ..u :.:.:. .c :.:.:.",
":.:.:.f o.:.:.:.:.g C U A T P 3 3 K E A I Z h :.:.:.:.{ c :.:.:.",
":.:.:.f o.:.:.:.:.d ( R N W A p p C W N Y ) d :.:.:.:.{ c :.:.:.",
":.:.:.f o.:.:.:.:.d ;.;.o.M H Q E K n X.;.;.f :.:.:.:.{ c :.:.:.",
":.:.:.f o.:.:.:.:.d ;.;.^ r 9 D H e q W ;.;.g :.:.:.:.{ c :.:.:.",
":.:.:.f o.:.:.:.:.z ~ n 7 5 = G U : 6 7 c Q x :.:.:.:.{ c :.:.:.",
":.:.:.f o.:.:.:.:.d q 4 < k E L I E z 1 5 w s :.:.:.:.{ c :.:.:.",
":.:.:.f +.:.:.:.r j 9 t ~ ;.;.Z S =.;.^ u 9 l t :.:.:. .c :.:.:.",
":.:.:.f } :.1 @.+.< 3 F %.;.%.Z S #.;.&.G 4 , ..&.6 :.) x :.:.:.",
":.:.:.d E n ;.P * :.:.: h ! ] H K ' ! h > :.:.# G ;.M I x :.:.:.",
":.:.:.V R M w :.:.:.:.:.:.6 h L Y j 7 :.:.:.:.:.:.6 m G G :.:.:.",
":.:.:.@ ( ;.k :.:.:.:.:.:.:.X L E O :.:.:.:.:.:.:.s ;.' $ :.:.:.",
":.:.:.:.:.r $.;.c :.:.:.:.:.:.F R :.:.:.:.:.:.g ;.=.u :.:.:.:.:.",
":.:.:.:.:.:.:.c ;.#.w :.:.:.:.G R :.:.:.:.5 O.;.n :.:.:.:.:.:.:.",
":.:.:.:.:.:.:.:.# I ;.^ > :.:.J Q :.:.& R ;.R % :.:.:.:.:.:.:.:.",
":.:.:.:.:.:.:.:.:.:.4 | ;.B X B G :.x ;.o.6 :.:.:.:.:.:.:.:.:.:.",
":.:.:.:.:.:.:.:.:.:.:.:.a ;.| V Z { ;.f :.:.:.:.:.:.:.:.:.:.:.:.",
":.:.:.:.:.:.:.:.:.:.:.:.:.:.V @.%.A :.:.:.:.:.:.:.:.:.:.:.:.:.:.",
":.:.:.:.:.:.:.:.:.:.:.:.:.:.:.> , :.:.:.:.:.:.:.:.:.:.:.:.:.:.:."
};
