/* XPM */
static char * aipg64_xpm[] = {
"64 64 2 1",
" 	c None",
".	c #D3C37E",
"                                                                ",
"                                                                ",
"                                                                ",
"                                                                ",
"                                                                ",
"                                                                ",
"                                                                ",
"                                                                ",
"                                                                ",
"                                                                ",
"                  ....        ......                            ",
"                  ....        ......                            ",
"                  ..  ..    ..    ..                            ",
"                  .   ..    ..    ..                            ",
"                  .   ........    ..                            ",
"                  .   ........    ..                            ",
"                  .   ..  ..      ..                            ",
"                  .   .   ..      ..                            ",
"                  .               ..                            ",
"                  .               ..                            ",
"                  .               ..                            ",
"                  .   ..    ..    ..      ....                  ",
"                  .   ..    ..    ..                            ",
"                  .   ..    ..    ..    ..    ..                ",
"                  .               ..    ..    ..                ",
"                  .               ....  ..  ....                ",
"                                            ..                  ",
"                    ..          ..    ..    ..                  ",
"                                                                ",
"                      ..                ....                    ",
"                      ..                ..                      ",
"                      ..                ..                      ",
"                      ..                ..                      ",
"                      ..  ..  ..    ..  ..                      ",
"                      ..  ..  ..    ..  ..                      ",
"                      ..  ..  ........  ..                      ",
"                      ..  ..  .. .....  ..                      ",
"                      ..........  ........                      ",
"                      ..........  ........                      ",
"                                                                ",
"                                                                ",
"                                                                ",
"                                                                ",
"                                                                ",
"            ..    ..   .                                        ",
"            ..    ..   ...       .....    ..   ..   ..          ",
"            ..    ..   ..       ..   ..   ..   ..   ..          ",
"            ...  ...   ..       ..   ..   ..   ..   ..          ",
"            ...  ...   .....    ..   ..    ..   ..  .           ",
"            . ..  ..   ..       ..   ..    ..   ..  .           ",
"            . ..  ..   ..       ..   ..    ..   ..  .           ",
"            . ..  ..   ..       ..   ..    ..  ...  .           ",
"            .     ..   ..       ..   ..     ...  ...            ",
"            .     ..   ......    .....      ...  ...            ",
"                                                                ",
"                                                                ",
"                                                                ",
"                                                                ",
"                                                                ",
"                                                                ",
"                                                                ",
"                                                                ",
"                                                                ",
"                                                                "};
