/* XPM */
static char *result[] = {
/* columns rows colors chars-per-pixel */
"16 16 64 1 ",
"  c gray57",
". c #939393",
"X c #959595",
"o c gray59",
"O c gray60",
"+ c #9A9A9A",
"@ c #9F9F9F",
"# c gray63",
"$ c #A2A2A2",
"% c gray64",
"& c #A5A5A5",
"* c gray68",
"= c #AFAFAF",
"- c gray69",
"; c #B1B1B1",
": c #B2B2B2",
"> c gray71",
", c gray72",
"< c #B9B9B9",
"1 c gray73",
"2 c #BBBBBB",
"3 c #BCBCBC",
"4 c gray74",
"5 c gray",
"6 c gray75",
"7 c #C0C0C0",
"8 c gray76",
"9 c #C3C3C3",
"0 c gray77",
"q c gray78",
"w c #C8C8C8",
"e c gray79",
"r c #CACACA",
"t c #CBCBCB",
"y c gray80",
"u c #CDCDCD",
"i c #CECECE",
"p c gray81",
"a c #D0D0D0",
"s c gray82",
"d c #D2D2D2",
"f c LightGray",
"g c gray83",
"h c gray84",
"j c #D7D7D7",
"k c #D8D8D8",
"l c gray85",
"z c #DADADA",
"x c gray86",
"c c gainsboro",
"v c #DDDDDD",
"b c gray87",
"n c #E1E1E1",
"m c gray90",
"M c #E6E6E6",
"N c #E7E7E7",
"B c #E9E9E9",
"V c #EAEAEA",
"C c #ECECEC",
"Z c #F1F1F1",
"A c gray99",
"S c #FEFEFE",
"D c white",
"F c None",
/* pixels */
"FFFFFFFFFFFFFFFF",
"FFFFFFF#q$FFFFFF",
"FFFFFFpityaFFFFF",
"FFFF8cFF>FFx0FFF",
"FFoz&FFF2FFF%zOF",
"FFjVFF s1aXFFMzF",
"FF3F40BD=DC06F3F",
"FFrFFkZl<jZlFFrF",
"FFqFFmS:q:ANFFqF",
"FFeFFw7,f16eFFeF",
"FF6F<@hDxDl@3F6F",
"FFdNFF.svsXFFngF",
"FFFf-FFFpFFF*sFF",
"FFFF5n@F;F+b7FFF",
"FFFFFFifgsuFFFFF",
"FFFFFFFF9FFFFFFF"
};
