/* XPM */
static char *result[] = {
/* columns rows colors chars-per-pixel */
"64 64 164 2 ",
"   c gray31",
".  c #565656",
"X  c gray36",
"o  c #5D5D5D",
"O  c #606060",
"+  c gray38",
"@  c #626262",
"#  c gray39",
"$  c #646464",
"%  c #656565",
"&  c gray40",
"*  c #676767",
"=  c #686868",
"-  c DimGray",
";  c #6A6A6A",
":  c gray42",
">  c #6C6C6C",
",  c #6D6D6D",
"<  c gray43",
"1  c #6F6F6F",
"2  c #717171",
"3  c #727272",
"4  c gray45",
"5  c #747474",
"6  c gray46",
"7  c #767676",
"8  c #777777",
"9  c gray47",
"0  c #797979",
"q  c gray48",
"w  c #7B7B7B",
"e  c #7C7C7C",
"r  c gray49",
"t  c #7E7E7E",
"y  c gray50",
"u  c #808080",
"i  c #818181",
"p  c gray51",
"a  c #838383",
"s  c #848484",
"d  c gray52",
"f  c #868686",
"g  c gray53",
"h  c #888888",
"j  c #898989",
"k  c gray54",
"l  c #8B8B8B",
"z  c gray55",
"x  c #8D8D8D",
"c  c #8E8E8E",
"v  c gray56",
"b  c #909090",
"n  c gray57",
"m  c #929292",
"M  c #939393",
"N  c gray58",
"B  c #959595",
"V  c gray59",
"C  c #979797",
"Z  c #989898",
"A  c gray60",
"S  c #9A9A9A",
"D  c #9B9B9B",
"F  c gray61",
"G  c #9D9D9D",
"H  c gray62",
"J  c #9F9F9F",
"K  c #A0A0A0",
"L  c gray63",
"P  c #A2A2A2",
"I  c gray64",
"U  c #A4A4A4",
"Y  c #A5A5A5",
"T  c gray65",
"R  c #A7A7A7",
"E  c gray66",
"W  c #A9A9A9",
"Q  c #AAAAAA",
"!  c gray67",
"~  c #ACACAC",
"^  c gray68",
"/  c #AEAEAE",
"(  c #AFAFAF",
")  c gray69",
"_  c #B1B1B1",
"`  c #B2B2B2",
"'  c gray70",
"]  c #B4B4B4",
"[  c gray71",
"{  c #B6B6B6",
"}  c #B7B7B7",
"|  c gray72",
" . c #B9B9B9",
".. c gray73",
"X. c #BBBBBB",
"o. c #BCBCBC",
"O. c gray74",
"+. c gray",
"@. c gray75",
"#. c #C0C0C0",
"$. c #C1C1C1",
"%. c gray76",
"&. c #C3C3C3",
"*. c gray77",
"=. c #C5C5C5",
"-. c #C6C6C6",
";. c gray78",
":. c #C8C8C8",
">. c gray79",
",. c #CACACA",
"<. c #CBCBCB",
"1. c gray80",
"2. c #CDCDCD",
"3. c #CECECE",
"4. c gray81",
"5. c #D0D0D0",
"6. c gray82",
"7. c #D2D2D2",
"8. c LightGray",
"9. c gray83",
"0. c #D5D5D5",
"q. c gray84",
"w. c #D7D7D7",
"e. c #D8D8D8",
"r. c gray85",
"t. c #DADADA",
"y. c gray86",
"u. c gainsboro",
"i. c #DDDDDD",
"p. c gray87",
"a. c #DFDFDF",
"s. c gray88",
"d. c #E1E1E1",
"f. c #E2E2E2",
"g. c gray89",
"h. c #E4E4E4",
"j. c gray90",
"k. c #E6E6E6",
"l. c #E7E7E7",
"z. c gray91",
"x. c #E9E9E9",
"c. c #EAEAEA",
"v. c gray92",
"b. c #ECECEC",
"n. c gray93",
"m. c #EEEEEE",
"M. c #EFEFEF",
"N. c gray94",
"B. c #F1F1F1",
"V. c gray95",
"C. c #F3F3F3",
"Z. c #F4F4F4",
"A. c gray96",
"S. c #F6F6F6",
"D. c gray97",
"F. c #F8F8F8",
"G. c #F9F9F9",
"H. c gray98",
"J. c #FBFBFB",
"K. c gray99",
"L. c #FDFDFD",
"P. c #FEFEFE",
"I. c white",
"U. c None",
/* pixels */
"U.U.U.U.U.U.U.U.U.U.U.U.U.U.U.U.U.U.U.U.U.U.U.U.U.U.U.U.U.U.U.U.U.U.U.U.U.U.U.U.U.U.U.U.U.U.U.U.U.U.U.U.U.U.U.U.U.U.U.U.U.U.U.U.",
"U.U.U.U.U.U.U.U.U.U.U.U.U.U.U.U.U.U.U.U.U.U.U.U.U.U.U.U.U.U.U.U.U.U.U.U.U.U.U.U.U.U.U.U.U.U.U.U.U.U.U.U.U.U.U.U.U.U.U.U.U.U.U.U.",
"U.U.U.U.U.U.U.U.U.U.U.U.U.U.U.U.U.U.U.U.U.U.U.U.U.U.U.U.U.U.U.U.U.U.U.U.U.U.U.U.U.U.U.U.U.U.U.U.U.U.U.U.U.U.U.U.U.U.U.U.U.U.U.U.",
"U.U.U.U.U.U.U.U.U.U.U.U.U.U.U.U.U.U.U.U.U.U.U.U.U.U.U.U.U.U.U.y a U.U.U.U.U.U.U.U.U.U.U.U.U.U.U.U.U.U.U.U.U.U.U.U.U.U.U.U.U.U.U.",
"U.U.U.U.U.U.U.U.U.U.U.U.U.U.U.U.U.U.U.U.U.U.U.U.U.U.U.U.U.U./ I.I.} O U.U.U.U.U.U.U.U.U.U.U.U.U.U.U.U.U.U.U.U.U.U.U.U.U.U.U.U.U.",
"U.U.U.U.U.U.U.U.U.U.U.U.U.U.U.U.U.U.U.U.U.U.U.U.U.U.U.U.M G.I.^ R I.I.G U.U.U.U.U.U.U.U.U.U.U.U.U.U.U.U.U.U.U.U.U.U.U.U.U.U.U.U.",
"U.U.U.U.U.U.U.U.U.U.U.U.U.U.U.U.U.U.U.U.U.U.U.U.U.U.w s.I.-.{ ' ` ..@.I.c.a U.U.U.U.U.U.U.U.U.U.U.U.U.U.U.U.U.U.U.U.U.U.U.U.U.U.",
"U.U.U.U.U.U.U.U.U.U.U.U.U.U.U.U.U.U.U.U.U.U.U.U.& &.I.i.U <.D.^ P Z.7.I 9.I.3.< U.U.U.U.U.U.U.U.U.U.U.U.U.U.U.U.U.U.U.U.U.U.U.U.",
"U.U.U.U.U.U.U.U.U.U.U.U.U.U.U.U.U.U.U.U.U.U.U.T I.C.! [ J.h.( L I ( r.I.o.R c.I.` U.U.U.U.U.U.U.U.U.U.U.U.U.U.U.U.U.U.U.U.U.U.U.",
"U.U.U.U.U.U.U.U.U.U.U.U.U.U.U.U.U.U.U.U.U.l V.I. .W c.I.T U.#.H.A.w.U.Z H.B.^ ' P.J.V U.U.U.U.U.U.U.U.U.U.U.U.U.U.U.U.U.U.U.U.U.",
"U.U.U.U.U.U.U.U.U.U.U.U.U.U.U.U.U.U.U.5 e.I.2.I 0.I.*.% U.U.6.z.d.d.U.U.U.{ I.p.Y &.I.h.r U.U.U.U.U.U.U.U.U.U.U.U.U.U.U.U.U.U.U.",
"U.U.U.U.U.U.U.U.U.U.U.U.U.U.U.U.U.U.[ I.g.Y $.I.a.q U.U.U.U.2.z.d.p.U.U.U.U.1 8.I.,.I t.I.%.% U.U.U.U.U.U.U.U.U.U.U.U.U.U.U.U.U.",
"U.U.U.U.U.U.U.U.U.U.U.U.U.U.U.U.Z K.K.( ) S.S.M U.U.U.U.U.U.2.z.d.p.U.U.U.U.U.U.g b.L.} Q Z.I.Y U.U.U.U.U.U.U.U.U.U.U.U.U.U.U.U.",
"U.U.U.U.U.U.U.U.U.U.U.U.U.U.t j.I.&.Y g.I.( U.U.U.U.U.U.U.U.2.z.d.p.U.U.U.U.U.U.U.U.L P.b.E ..I.B.k U.U.U.U.U.U.U.U.U.U.U.U.U.U.",
"U.U.U.U.U.U.U.U.U.U.U.U.- :.I.r.I ,.I.1.; U.U.U.U.U.U.U.U.U.2.v.h.p.U.U.U.U.U.U.U.U.U.+ @.I.9.I 3.I.w.4 U.U.U.U.U.U.U.U.U.U.U.U.",
"U.U.U.U.U.U.U.U.U.U.U.! I.M.W | L.v.d U.U.U.U.U.U.U.U.U.U.U.u.x.a.m.U.U.U.U.U.U.U.U.U.U.U.q s.I.$.Y h.I.X.+ U.U.U.U.U.U.U.U.U.U.",
"U.U.U.U.U.U.U.U.U.z S.I.{ ! n.L.L U.U.U.U.U.U.U.U.U.U.U.U.U.K ) Q ! U.U.U.U.U.U.U.U.U.U.U.U.U.N S.D.) / G.I.D U.U.U.U.U.U.U.U.U.",
"U.U.U.U.U.U.U.y e.I.>.^ t.I.O.@ U.U.U.U.U.U.U.U.U.U.U.U.U.i / o.#.` h U.U.U.U.U.U.U.U.U.U.U.U.U.U.) I.j.) o.I.j.v U.U.U.U.U.U.U.",
"U.U.U.U.U.U.: [ m.I.H ( ;.7 U.U.U.U.U.U.U.U.U.U.U.U.U.U.P 0.O.Q ) O.e.T U.U.U.U.U.U.U.U.U.U.U.U.U.U.U.@...C I.N.&.4 U.U.U.U.U.U.",
"U.U.U.U.U.U.A h.! ~ D.v.u U.U.U.U.U.U.U.U.U.U.U.U.U.C $.7.Y n _ | A Y 7.=.G U.U.U.U.U.U.U.U.U.U.U.U.U.9 g.J._ E s.W U.U.U.U.U.U.",
"U.U.U.U.U.U.k I.I.0.T =.I.s.q U.U.U.U.U.U.U.U.U.k [ w.W ! | n o.%.M ' { R e. .n U.U.U.U.U.U.U.U.U.4 e.I.<.Y 5.I.I.S U.U.U.U.U.U.",
"U.U.U.U.U.U.n P.L &.L.:.I i.I.%.& U.U.U.U.U.0 Q 8...V | h.L.H { o.H A.k.X.F } q./ a U.U.U.U.U.+ ..I.h.Y %.I.6.C L.Y U.U.U.U.U.U.",
"U.U.U.U.U.U.n K.{ | x c.J.[ ! C.I.T U.U.U.L >.>.V / 7.I.I.z.Z } O.S a.I.I.6.' S :.2.Y U.U.U.G I.G.( ) D.Z.x  .{ D.T U.U.U.U.U.U.",
"U.U.U.U.U.U.n H.:.I.# U.E I.c.E  .I.M.r d 5._ Y ;.F.I.I.I.c.A } O.S d.I.I.I.G.;.! _ 7.v w l.I.@.Y g.I.` U.U.I.7.Z.Y U.U.U.U.U.U.",
"U.U.U.U.U.U.n J.*.L.r U.U.& *.I.0.I 3.I.,.e S D.I.I.I.I.I.c.A } o.S d.I.I.I.I.I.J.L r +.I.0.I 3.I.3., U.U.U.H.<.A.Y U.U.U.U.U.U.",
"U.U.U.U.U.U.n J.*.L.q U.U.U.U.w s.I.@.R l.C.O.) f.I.I.I.I.c.A } o.S d.I.I.I.I.c.'  .n.m.!  .I.x.a U.U.U.U.U.H.<.A.Y U.U.U.U.U.U.",
"U.U.U.U.U.U.n J.*.L.q U.U.U.U.U.U.b x.m._ ] N.i.Y ) Z.I.I.x.A } o.S s.I.I.K.{ P q.Z...~ x.M.A U.U.U.U.U.U.U.H.<.A.Y U.U.U.U.U.U.",
"U.U.U.U.U.U.n J.*.L.q U.U.U.U.U.U.U.V ( b.r.E &.A.1.K @.I.P.C } o.C B.I.;.K *.S.<.R 8.m.] Z ; U.U.U.U.U.U.U.H.<.A.Y U.U.U.U.U.U.",
"U.U.U.U.U.U.n J.*.L.q U.U.U.U.U.U.z q.j C >.n.<.Y 0.C.X.( %.L +.%.Y &.[ ' N.i.R *.b.1.S d 3.B U.U.U.U.U.U.U.H.<.A.Y U.U.U.U.U.U.",
"U.U.U.U.U.U.n J.*.L.q U.U.U.U.U.U.a 2._ N.*.P 4.b.X.! k.M.~ r U ~ u Y c.b.( [ x.0.U O.N.' ;.k U.U.U.U.U.U.U.H.<.A.Y U.U.U.U.U.U.",
"U.U.U.U.U.U.n J.*.L.q U.U.U.U.U.U.s 2.I c.I.B./ E a.j./ ] D.n.V v j.K.X.Q p.f.^ Q v.I.V.I ;.l U.U.U.U.U.U.U.H.<.A.Y U.U.U.U.U.U.",
"U.U.U.U.U.U.n J.*.L.q U.U.U.U.U.U.s 2.Y z.I.I.I.p.Y ] A.u.U -.I.I.5.I 7.S.X.I q.I.I.I.m.Y ;.l U.U.U.U.U.U.U.H.<.A.Y U.U.U.U.U.U.",
"U.U.U.U.U.U.n J.*.L.q U.U.U.U.U.U.s 2.Y z.I.I.I.I.I.r.z &.L.+.W ! } D.3.z 4.I.I.I.I.I.m.Y ;.l U.U.U.U.U.U.U.H.<.A.Y U.U.U.U.U.U.",
"U.U.U.U.U.U.n J.*.L.q U.U.U.U.U.U.s 2.Y z.I.I.I.I.V.9.J t J J.-. .I.E i B 5.n.I.I.I.I.m.Y ;.l U.U.U.U.U.U.U.H.<.A.Y U.U.U.U.U.U.",
"U.U.U.U.U.U.n J.*.L.q U.U.U.U.U.U.s 2.Y l.I.I.P.2.L Z O.>.f $.m.z.6.d :.O.F D ;.F.I.I.n.Y ;.l U.U.U.U.U.U.U.H.<.A.Y U.U.U.U.U.U.",
"U.U.U.U.U.U.n J.*.L.q U.U.U.U.U.U.s 2.I D.I.r./ m [ ] $.@.h 1.j.a.r.g %.-.' } N T 8.I.I.I -.l U.U.U.U.U.U.U.H.<.A.Y U.U.U.U.U.U.",
"U.U.U.U.U.U.n J.*.L.q U.U.U.U.U.U.s 2.~ e.*.M ~ } X.%.Q Z 3 7.j.a.s.2 N W =.#.] _ b X.e.! :.l U.U.U.U.U.U.U.H.<.A.Y U.U.U.U.U.U.",
"U.U.U.U.U.U.n J.*.L.q U.U.U.U.U.U.U.w.! d W ..{ =.) C d *.w.q.a.y.y.8.2.p n ) >.| } ~ a U 9.j U.U.U.U.U.U.U.H.<.A.Y U.U.U.U.U.U.",
"U.U.U.U.U.U.n J.*.L.q U.U.U.U.U.U.0 *.x ~ } *.{ J s T x.I.f.1.a.y.8.9.I.V.Q t D | >.{ / c o.s U.U.U.U.U.U.U.H.<.A.Y U.U.U.U.U.U.",
"U.U.U.U.U.U.n J.*.L.q U.U.U.U.U.5 ] ;.G >.%.R j V e.I.I.I.q.4.a.y.0.2.I.I.I.f.C i T *.2.F =.+.0 U.U.U.U.U.U.H.<.A.Y U.U.U.U.U.U.",
"U.U.U.U.U.U.n J.*.L.q U.U.U.U.^ I.O./ %.Y l M q.I.I.I.I.I.w.4.a.y.0.2.I.I.I.I.I.i.m g ! @.| / I.+.# U.U.U.U.H.<.A.Y U.U.U.U.U.U.",
"U.U.U.U.U.U.n J.*.P.U.U.U.n G.I.| u R s.U Z ' c.I.I.I.I.I.w.4.a.y.0.2.I.I.I.I.I.n.X.V G d.` i ) H.I.L U.U.U.K.<.A.Y U.U.U.U.U.U.",
"U.U.U.U.U.U.n J.*.I.* = p.I.=.V 3.I.R 3 O.i.{ K @.l.I.I.I.w.4.a.y.0.2.I.I.I.c.#.K ( i.&.6 V I.r.V } I.M.w . G.<.A.Y U.U.U.U.U.U.",
"U.U.U.U.U.U.n J.&.h.) I.p.A ] I.V.x U.U.U.Z #.0.K E -.D.I.e.3.a.y.9.2.I.H.:.Q F 7.*.H U.U.U.i k.I.O.N 4.I.| a.,.A.Y U.U.U.U.U.U.",
"U.U.U.U.U.U.n J.>.C. .O.I Z.I.Y U.U.U.U.U.U.U.I 1.,.A ` e.f.q.p.t.t.e.u.' Z =.4.R U.U.U.U.U.U.U.Z I.P.R { ] S.9.C.Y U.U.U.U.U.U.",
"U.U.U.U.U.U.m K.| <.& U I.:.& U.U.U.U.U.U.U.U.U.u ^ 0...R I 7.f.i.u.K Q ] q._ d U.U.U.U.U.U.U.U.U.U.| I...X O.' F.T U.U.U.U.U.U.",
"U.U.U.U.U.U.A I.a B L.w.q U.U.U.U.U.U.U.U.U.U.U.U.U.v } u.c =.j.a.9.l u...N U.U.U.U.U.U.U.U.U.U.U.U.U.< 2.K.S 1 I./ U.U.U.U.U.U.",
"U.U.U.U.U.U.7 V.I...` n.b.S U.U.U.U.U.U.U.U.U.U.U.U.U.U.Y S 8.g.i.p.C ! U.U.U.U.U.U.U.U.U.U.U.U.U.U.l a.M... .I.G.p U.U.U.U.U.U.",
"U.U.U.U.U.U.U.$ $.I.i.L #.I.l.i U.U.U.U.U.U.U.U.U.U.U.U.U.U.0.l.s.h.o U.U.U.U.U.U.U.U.U.U.U.U.U.3 q.I.<.P q.I.1.: U.U.U.U.U.U.U.",
"U.U.U.U.U.U.U.U.U.q a.I.;.K q.I.1.> U.U.U.U.U.U.U.U.U.U.U.U.,.c.f.i.U.U.U.U.U.U.U.U.U.U.U.U.O  .I.s.U $.I.z.p U.U.U.U.U.U.U.U.U.",
"U.U.U.U.U.U.U.U.U.U.U.m G.I.] T b.I./ U.U.U.U.U.U.U.U.U.U.U.1.x.d.p.U.U.U.U.U.U.U.U.U.U.U.G P.A./ ) J.P.D U.U.U.U.U.U.U.U.U.U.U.",
"U.U.U.U.U.U.U.U.U.U.U.U.U./ I.m.T ` I.A.c U.U.U.U.U.U.U.U.U.1.x.d.p.U.U.U.U.U.U.U.U.U.r h.I.o.T l.I.} U.U.U.U.U.U.U.U.U.U.U.U.U.",
"U.U.U.U.U.U.U.U.U.U.U.U.U.U.: <.I.w.J >.I.y.7 U.U.U.U.U.U.U.1.x.d.p.U.U.U.U.U.U.U.= ;.I.0.P 5.I.9.2 U.U.U.U.U.U.U.U.U.U.U.U.U.U.",
"U.U.U.U.U.U.U.U.U.U.U.U.U.U.U.U.i z.I.O.L s.I.+.# U.U.U.U.U.1.x.d.p.U.U.U.U.U.U.Q I.v.R  .I.M.h U.U.U.U.U.U.U.U.U.U.U.U.U.U.U.U.",
"U.U.U.U.U.U.U.U.U.U.U.U.U.U.U.U.U.U.F I.G.! Q S.I.P U.U.U.U.1.x.d.p.U.U.U.U.v Z.L.] Q V.I.I U.U.U.U.U.U.U.U.U.U.U.U.U.U.U.U.U.U.",
"U.U.U.U.U.U.U.U.U.U.U.U.U.U.U.U.U.U.U.# +.I.g.L ..I.M.h U.U.4.c.d.d.U.U.7 y.I.-.I y.I.-.* U.U.U.U.U.U.U.U.U.U.U.U.U.U.U.U.U.U.U.",
"U.U.U.U.U.U.U.U.U.U.U.U.U.U.U.U.U.U.U.U.U.8 y.I.<.H 4.I.7.. $.x.d.q.  ..I.y.I =.I.f.e U.U.U.U.U.U.U.U.U.U.U.U.U.U.U.U.U.U.U.U.U.",
"U.U.U.U.U.U.U.U.U.U.U.U.U.U.U.U.U.U.U.U.U.U.U.v S.I.} P n.n.2.a.y.7.y.G.! ] I.H.B U.U.U.U.U.U.U.U.U.U.U.U.U.U.U.U.U.U.U.U.U.U.U.",
"U.U.U.U.U.U.U.U.U.U.U.U.U.U.U.U.U.U.U.U.U.U.U.U.U.Q I.C.[ c <.j.s.q.n  .b.I.) U.U.U.U.U.U.U.U.U.U.U.U.U.U.U.U.U.U.U.U.U.U.U.U.U.",
"U.U.U.U.U.U.U.U.U.U.U.U.U.U.U.U.U.U.U.U.U.U.U.U.U.U.- :.I.q.s.e.8.x.7.I.2., U.U.U.U.U.U.U.U.U.U.U.U.U.U.U.U.U.U.U.U.U.U.U.U.U.U.",
"U.U.U.U.U.U.U.U.U.U.U.U.U.U.U.U.U.U.U.U.U.U.U.U.U.U.U.U.r k.I.y.8.I.v.i U.U.U.U.U.U.U.U.U.U.U.U.U.U.U.U.U.U.U.U.U.U.U.U.U.U.U.U.",
"U.U.U.U.U.U.U.U.U.U.U.U.U.U.U.U.U.U.U.U.U.U.U.U.U.U.U.U.U.U.K ;.<.Q U.U.U.U.U.U.U.U.U.U.U.U.U.U.U.U.U.U.U.U.U.U.U.U.U.U.U.U.U.U.",
"U.U.U.U.U.U.U.U.U.U.U.U.U.U.U.U.U.U.U.U.U.U.U.U.U.U.U.U.U.U.U.# = U.U.U.U.U.U.U.U.U.U.U.U.U.U.U.U.U.U.U.U.U.U.U.U.U.U.U.U.U.U.U.",
"U.U.U.U.U.U.U.U.U.U.U.U.U.U.U.U.U.U.U.U.U.U.U.U.U.U.U.U.U.U.U.U.U.U.U.U.U.U.U.U.U.U.U.U.U.U.U.U.U.U.U.U.U.U.U.U.U.U.U.U.U.U.U.U."
};
