/* XPM */
static char * aipg16_xpm[] = {
"16 16 2 1",
" 	c None",
".	c #D3C37E",
"                ",
"                ",
"    .  ..       ",
"     .. .       ",
"        .       ",
"     .  .  .    ",
"         .      ",
"     .          ",
"     ....       ",
"                ",
"                ",
"    ..    ..    ",
"   ...    ..    ",
"                ",
"                ",
"                "};
